<?xml version="1.0" encoding="utf-8"?>
<!-- Generator: Adobe Illustrator 19.0.0, SVG Export Plug-In . SVG Version: 6.00 Build 0)  -->
<svg version="1.1" id="Layer_1" xmlns="http://www.w3.org/2000/svg" xmlns:xlink="http://www.w3.org/1999/xlink" x="0px" y="0px"
	 viewBox="0 0 623 70.6" style="enable-background:new 0 0 623 70.6;" xml:space="preserve">
<style type="text/css">
	.st0{fill:#009444;}
	.st1{fill:none;stroke:#006838;stroke-width:8;}
	.st2{fill:#00A651;}
</style>
<g id="XMLID_3_">
	<g id="XMLID_247_">
		<g id="XMLID_248_">
			<path id="XMLID_279_" class="st0" d="M6.5,62C6.8,56,7,53,7.3,46.9C8,34.6,8.3,22.3,9.7,10c4.9,1.4,7.3,2.1,12.2,3.5
				c-0.7,10.3-1.1,15.4-1.8,25.6c0,0,0,0.1,0,0.1c3.5-3.8,5.2-5.7,8.7-9.6c4.4,5.6,6.7,8.4,11.1,14c-0.9-14.7-1.5-23.9-1.9-27.5
				c0-0.2,0.4-0.5,1.1-0.7c5-0.7,7.7-1.2,8.3-1.6c0,0,0.1,0,0.1,0c1.8,16.6,3.6,33.3,5.5,49.9c0,0-0.1,0.1-0.1,0.1
				c-2.1-0.3-3.2-0.4-5.4-0.6c-4.2-0.3-6.2-0.6-6.2-0.8c-5-6.7-7.5-10-12.6-16.7c0,0-0.1,0-0.1,0c-4.1,7.5-6.8,12.4-8.1,14.6
				c-1.5,2.7-2.3,4.4-2.3,4.8C13.5,63.9,11.2,63.3,6.5,62z"/>
			<path id="XMLID_277_" class="st0" d="M97.8,8.1c0,0,0.1,0.1,0.1,0.1c0,3.8,0,5.7,0,9.6c0,0.3-1.1,0.5-3.3,0.7
				c-9.3,1.6-13.9,2.4-23.2,4c0,3.5,0,5.3,0,8.8c0,0,0.1,0,0.1,0c6.8-1.3,10.2-2,17.1-3.4c0.1,0,0.4,4.8,0.7,14.5
				c-7.1,1.8-10.7,2.6-17.9,4.4c0,2.1,0,3.2,0,5.3c13.1-0.8,21-1.2,23.8-1.2c0,0,0.1,0.1,0.1,0.1c0,0-0.1,0.1-0.1,0.1
				c0,1,0,1.5,0,2.5c0.1,3.9,0.1,5.9,0.2,9.9c-12.5,0.8-25.1,1.1-37.6,1.6c0,0-0.1-0.1-0.1-0.1c0-17.8,0-35.6,0-53.5
				c0-0.3,1.8-0.5,5.5-0.6C74.7,9.9,86.3,9,97.8,8.1z"/>
			<path id="XMLID_275_" class="st0" d="M152.3,10.4c0.1,0,0.1,0,0.2,0c0.2,0,0.3,0.4,0.3,1.2c0.4,16.6,0.3,33.4,1.8,50
				c0,0.1-3.1,0.4-9.4,0.8c-0.6-1.6-1.3-8.4-2.3-20.4c-0.1,0-0.2,0.1-0.3,0.1c-3.4,0-8.2,1.6-14.3,4.8c0.3,6.4,0.5,9.6,0.8,16.1
				c0,0.1-4.2,0.8-12.5,2.1c-0.8-10.6-1-21.2-1.4-31.7c-0.3-7.3-0.5-10.9-0.8-18.2c4.8-1.6,7.1-2.3,11.9-3.9c0.1,0,0.5,6.8,1.1,20.5
				c0,0,0.1,0.1,0.1,0.1c0,0,0.1,0,0.1,0c2.1-0.8,5.9-1.6,11.4-2.4c1.2-0.1,1.7-0.2,2.9-0.3c-0.4-6.3-0.6-9.5-1.1-15.9
				C147,11.3,150.8,10.4,152.3,10.4z"/>
			<path id="XMLID_272_" class="st0" d="M186.2,11.3c0.1,0,0.7,2.3,1.7,6.9c3.5,15.6,7,31.2,10.5,46.7c0,0-0.1,0.1-0.1,0.1
				c-4.8,0-7.1,0-11.9,0c-0.1,0-0.9-3.7-2.4-11.1c-0.5-2-0.7-3-1.1-5c-5.8,2.5-8.8,3.9-8.8,4c-0.9,4.9-1.3,7.3-2.2,12.2
				c-5.4,0-8.1,0-13.5,0c0,0-0.1-0.1-0.1-0.1c0,0-0.1,0-0.1,0c4.6-17.9,9.1-35.8,13.7-53.7C177.6,11.3,180.5,11.3,186.2,11.3z
				 M175.8,43.9c2.3-0.9,3.4-1.4,5.6-2.3c-1.1-5.3-1.6-8-2.7-13.3c-0.2,0-0.9,4.1-2.3,12.3C176.1,41.9,176,42.5,175.8,43.9z"/>
			<path id="XMLID_270_" class="st0" d="M202.6,11.3c0.1,0,1,3.9,2.6,11.6c2.1,9.4,4.1,18.8,6.2,28.2c0,0,0.1,0,0.1,0
				c4.1-13.2,8.2-26.5,12.2-39.7c0,0,0.1,0,0.1,0c4.2,1.8,7.3,3.1,9.2,3.8c0,0,0,0.1,0,0.1c-5.4,16.6-10.8,33.3-16.2,49.9
				c-4.5,0-6.7,0-11.2,0c-0.2,0-2.3-9-6.5-26.7c-3-12.3-5.2-21.3-6.3-27c0,0,0.1-0.1,0.1-0.1C196.8,11.3,198.7,11.3,202.6,11.3z"/>
			<path id="XMLID_268_" class="st0" d="M276.6,8.1c0,0,0.1,0.1,0.1,0.1c0,3.8,0,5.7,0,9.6c0,0.3-1.1,0.5-3.3,0.7
				c-9.3,1.6-13.9,2.4-23.2,4c0,3.5,0,5.3,0,8.8c0,0,0.1,0,0.1,0c6.8-1.3,10.2-2,17.1-3.4c0.1,0,0.4,4.8,0.7,14.5
				c-7.1,1.8-10.7,2.6-17.9,4.4c0,2.1,0,3.2,0,5.3c13.1-0.8,21-1.2,23.8-1.2c0,0,0.1,0.1,0.1,0.1c0,0-0.1,0.1-0.1,0.1
				c0,1,0,1.5,0,2.5c0.1,3.9,0.1,5.9,0.2,9.9c-12.5,0.8-25.1,1.1-37.6,1.6c0,0-0.1-0.1-0.1-0.1c0-17.8,0-35.6,0-53.5
				c0-0.3,1.8-0.5,5.5-0.6C253.6,9.9,265.1,9,276.6,8.1z"/>
			<path id="XMLID_265_" class="st0" d="M321.2,11.3c0.1,0,0.7,2.3,1.7,6.9c3.5,15.6,7,31.2,10.5,46.7c0,0-0.1,0.1-0.1,0.1
				c-4.8,0-7.1,0-11.9,0c-0.1,0-0.9-3.7-2.4-11.1c-0.5-2-0.7-3-1.1-5c-5.8,2.5-8.8,3.9-8.8,4c-0.9,4.9-1.3,7.3-2.2,12.2
				c-5.4,0-8.1,0-13.5,0c0,0-0.1-0.1-0.1-0.1c0,0-0.1,0-0.1,0c4.6-17.9,9.1-35.8,13.7-53.7C312.6,11.3,315.4,11.3,321.2,11.3z
				 M310.7,43.9c2.3-0.9,3.4-1.4,5.6-2.3c-1.1-5.3-1.6-8-2.7-13.3c-0.2,0-0.9,4.1-2.3,12.3C311.1,41.9,311,42.5,310.7,43.9z"/>
			<path id="XMLID_263_" class="st0" d="M349.9,62c0.3-6.1,0.5-9.1,0.8-15.1c0.6-12.3,1-24.6,2.4-36.9c4.9,1.4,7.3,2.1,12.2,3.5
				c-0.7,10.3-1.1,15.4-1.8,25.6c0,0,0,0.1,0,0.1c3.5-3.8,5.2-5.7,8.7-9.6c4.4,5.6,6.7,8.4,11.1,14c-0.9-14.7-1.5-23.9-1.9-27.5
				c0-0.2,0.4-0.5,1.1-0.7c5-0.7,7.7-1.2,8.3-1.6c0,0,0.1,0,0.1,0c1.8,16.6,3.6,33.3,5.5,49.9c0,0-0.1,0.1-0.1,0.1
				c-2.1-0.3-3.2-0.4-5.4-0.6c-4.2-0.3-6.2-0.6-6.2-0.8c-5-6.7-7.5-10-12.6-16.7c0,0-0.1,0-0.1,0c-4.1,7.5-6.8,12.4-8.1,14.6
				c-1.5,2.7-2.3,4.4-2.3,4.8C356.9,63.9,354.6,63.3,349.9,62z"/>
			<path id="XMLID_261_" class="st0" d="M412.4,17.3c0.2,0,0.6,7.6,1.6,22.7c0.7,10.3,1.1,17.5,1.1,21.5c0,0.6,0,0.9,0,1.6
				c0,0.2-1.8,0.6-5.4,0.9c-2.9,0.4-4.3,0.6-7.1,1.1c-1.2-11.3-1.6-22.8-2.2-34.1c-0.2-5.2-0.4-7.8-0.6-13
				C399.7,17.8,403.9,17.6,412.4,17.3z"/>
			<path id="XMLID_259_" class="st0" d="M454.1,7.8c3.5,0,5.3,0.1,8.8,0.1c0,0,0.1,0.1,0.1,0.1c0,0,0,0.1,0,0.1
				c-0.9,18.2-1.9,36.3-2.8,54.5c-4.4,1-6.7,1.4-11.1,2.4c-5.8-11.5-11.5-23.1-17.6-34.5c0,0.1,0,0.1,0,0.2c1.1,9.5,2.1,19,3.2,28.6
				c0,0.1-4.1,0.6-12.2,1.4c-0.1,0-0.6-7.1-1.5-21c-0.6-9.6-1.2-17.7-1.5-24.2c5-1.2,7.5-1.8,12.5-2.9c5.9,8.9,11.8,17.8,17.1,27
				c0,0,0,0.1,0,0.1c0,0,0.1,0,0.1,0c0.7-10.6,1.3-21.2,2-31.8c0,0,0.1-0.1,0.1-0.1C452.4,7.8,453,7.8,454.1,7.8z"/>
			<path id="XMLID_257_" class="st0" d="M502.5,7.8c3.5,0,5.3,0.1,8.8,0.1c0,0,0.1,0.1,0.1,0.1c0,0,0,0.1,0,0.1
				c-0.9,18.2-1.9,36.3-2.8,54.5c-4.4,1-6.7,1.4-11.1,2.4C491.7,53.6,486,42,479.9,30.6c0,0.1,0,0.1,0,0.2c1.1,9.5,2.1,19,3.2,28.6
				c0,0.1-4.1,0.6-12.2,1.4c-0.1,0-0.6-7.1-1.5-21c-0.6-9.6-1.2-17.7-1.5-24.2c5-1.2,7.5-1.8,12.5-2.9c5.9,8.9,11.8,17.8,17.1,27
				c0,0,0,0.1,0,0.1c0,0,0.1,0,0.1,0c0.7-10.6,1.3-21.2,2-31.8c0,0,0.1-0.1,0.1-0.1C500.8,7.8,501.4,7.8,502.5,7.8z"/>
			<path id="XMLID_255_" class="st0" d="M556.4,8.1c0,0,0.1,0.1,0.1,0.1c0,3.8,0,5.7,0,9.6c0,0.3-1.1,0.5-3.3,0.7
				c-9.3,1.6-13.9,2.4-23.2,4c0,3.5,0,5.3,0,8.8c0,0,0.1,0,0.1,0c6.8-1.3,10.2-2,17.1-3.4c0.1,0,0.4,4.8,0.7,14.5
				c-7.1,1.8-10.7,2.6-17.9,4.4c0,2.1,0,3.2,0,5.3c13.1-0.8,21-1.2,23.8-1.2c0,0,0.1,0.1,0.1,0.1c0,0-0.1,0.1-0.1,0.1
				c0,1,0,1.5,0,2.5c0.1,3.9,0.1,5.9,0.2,9.9c-12.5,0.8-25.1,1.1-37.6,1.6c0,0-0.1-0.1-0.1-0.1c0-17.8,0-35.6,0-53.5
				c0-0.3,1.8-0.5,5.5-0.6C533.3,9.9,544.9,9,556.4,8.1z"/>
			<path id="XMLID_252_" class="st0" d="M586.3,6.5c0.3,0,0.5,0,0.8,0c5.7,0,9.1,2.2,10.1,6.6c0.1,0.7,0.1,1.1,0.2,1.8
				c0,0.3,0,0.4,0,0.7c0,4.8-3.5,9.8-10.6,15.1c4.8,6.4,8.3,13.1,10.6,20.4c0.7,1.6,1.4,4.1,2.1,7.5c-4,3.9-6.7,5.9-8.1,5.9
				c-0.1,0-0.1,0-0.2,0c-0.6,0-0.9-0.8-1-2.5c-3.5-8.9-9.1-17-14.2-25c-1.5,0.7-2.3,1.1-3.9,1.8c0,1.8,0.1,2.6,0.1,4.4
				c0.1,7.6,0.1,11.5,0.2,19.1c0,0.3,0.1,0.4,0.1,0.7c-0.2,0.2-4.1,0.9-11.4,2.1c0,0-0.1-0.1-0.1-0.1c-0.2-18.5-0.5-37-0.7-55.6
				c0,0,0.1-0.1,0.1-0.1c4.4,0,6.7,0,11.1,0C577.4,7.4,582.3,6.5,586.3,6.5z M572.2,20c0,3.1,0,4.7,0,7.8c7.3-2.5,11-5,11-7.7
				c0-0.1,0-0.2,0-0.3c0-1.1-0.9-1.6-2.7-1.6C578.5,18.2,575.8,18.8,572.2,20z"/>
			<path id="XMLID_249_" class="st0" d="M606.2,54.6c0.5,0,2.6,1.2,6.2,3.5c1.8,1.4,2.7,2.7,2.7,3.8c0,1.3-1.2,2.4-3.7,3.2
				c-0.6,0-0.8,0.1-1.4,0.1c-0.1,0-0.2,0-0.3,0c-2.4,0-4-1.1-4.8-3.4c-0.2-1-0.3-2.1-0.3-3.4C604.7,55.8,605.2,54.6,606.2,54.6z
				 M617.8,9.8c0,0,0.1,0.1,0.1,0.1c0,0,0,0.1,0,0.1c-1.1,13.1-2.3,26.2-3.2,39.3c0,0-0.1,0.1-0.1,0.1c0,0-0.1-0.1-0.1-0.1
				c-1.4,0-2.1-0.1-3.5-0.1c-1.9,0-2.9,0-4.8,0c-0.3,0,0.1-5.5-0.4-14.6c0-0.8-0.2-5.8-0.2-14.9c0-1.8,0-2.7,0-4.5
				c0-2.9,0.1-4.4,0.4-4.4C610.7,10.4,613.1,10.2,617.8,9.8z"/>
		</g>
	</g>
	<g id="XMLID_213_">
		<g id="XMLID_214_">
			<path id="XMLID_245_" class="st1" d="M6.5,62C6.8,56,7,53,7.3,46.9C8,34.6,8.3,22.3,9.7,10c4.9,1.4,7.3,2.1,12.2,3.5
				c-0.7,10.3-1.1,15.4-1.8,25.6c0,0,0,0.1,0,0.1c3.5-3.8,5.2-5.7,8.7-9.6c4.4,5.6,6.7,8.4,11.1,14c-0.9-14.7-1.5-23.9-1.9-27.5
				c0-0.2,0.4-0.5,1.1-0.7c5-0.7,7.7-1.2,8.3-1.6c0,0,0.1,0,0.1,0c1.8,16.6,3.6,33.3,5.5,49.9c0,0-0.1,0.1-0.1,0.1
				c-2.1-0.3-3.2-0.4-5.4-0.6c-4.2-0.3-6.2-0.6-6.2-0.8c-5-6.7-7.5-10-12.6-16.7c0,0-0.1,0-0.1,0c-4.1,7.5-6.8,12.4-8.1,14.6
				c-1.5,2.7-2.3,4.4-2.3,4.8C13.5,63.9,11.2,63.3,6.5,62z"/>
			<path id="XMLID_243_" class="st1" d="M97.8,8.1c0,0,0.1,0.1,0.1,0.1c0,3.8,0,5.7,0,9.6c0,0.3-1.1,0.5-3.3,0.7
				c-9.3,1.6-13.9,2.4-23.2,4c0,3.5,0,5.3,0,8.8c0,0,0.1,0,0.1,0c6.8-1.3,10.2-2,17.1-3.4c0.1,0,0.4,4.8,0.7,14.5
				c-7.1,1.8-10.7,2.6-17.9,4.4c0,2.1,0,3.2,0,5.3c13.1-0.8,21-1.2,23.8-1.2c0,0,0.1,0.1,0.1,0.1c0,0-0.1,0.1-0.1,0.1
				c0,1,0,1.5,0,2.5c0.1,3.9,0.1,5.9,0.2,9.9c-12.5,0.8-25.1,1.1-37.6,1.6c0,0-0.1-0.1-0.1-0.1c0-17.8,0-35.6,0-53.5
				c0-0.3,1.8-0.5,5.5-0.6C74.7,9.9,86.3,9,97.8,8.1z"/>
			<path id="XMLID_241_" class="st1" d="M152.3,10.4c0.1,0,0.1,0,0.2,0c0.2,0,0.3,0.4,0.3,1.2c0.4,16.6,0.3,33.4,1.8,50
				c0,0.1-3.1,0.4-9.4,0.8c-0.6-1.6-1.3-8.4-2.3-20.4c-0.1,0-0.2,0.1-0.3,0.1c-3.4,0-8.2,1.6-14.3,4.8c0.3,6.4,0.5,9.6,0.8,16.1
				c0,0.1-4.2,0.8-12.5,2.1c-0.8-10.6-1-21.2-1.4-31.7c-0.3-7.3-0.5-10.9-0.8-18.2c4.8-1.6,7.1-2.3,11.9-3.9c0.1,0,0.5,6.8,1.1,20.5
				c0,0,0.1,0.1,0.1,0.1c0,0,0.1,0,0.1,0c2.1-0.8,5.9-1.6,11.4-2.4c1.2-0.1,1.7-0.2,2.9-0.3c-0.4-6.3-0.6-9.5-1.1-15.9
				C147,11.3,150.8,10.4,152.3,10.4z"/>
			<path id="XMLID_238_" class="st1" d="M186.2,11.3c0.1,0,0.7,2.3,1.7,6.9c3.5,15.6,7,31.2,10.5,46.7c0,0-0.1,0.1-0.1,0.1
				c-4.8,0-7.1,0-11.9,0c-0.1,0-0.9-3.7-2.4-11.1c-0.5-2-0.7-3-1.1-5c-5.8,2.5-8.8,3.9-8.8,4c-0.9,4.9-1.3,7.3-2.2,12.2
				c-5.4,0-8.1,0-13.5,0c0,0-0.1-0.1-0.1-0.1c0,0-0.1,0-0.1,0c4.6-17.9,9.1-35.8,13.7-53.7C177.6,11.3,180.5,11.3,186.2,11.3z
				 M175.8,43.9c2.3-0.9,3.4-1.4,5.6-2.3c-1.1-5.3-1.6-8-2.7-13.3c-0.2,0-0.9,4.1-2.3,12.3C176.1,41.9,176,42.5,175.8,43.9z"/>
			<path id="XMLID_236_" class="st1" d="M202.6,11.3c0.1,0,1,3.9,2.6,11.6c2.1,9.4,4.1,18.8,6.2,28.2c0,0,0.1,0,0.1,0
				c4.1-13.2,8.2-26.5,12.2-39.7c0,0,0.1,0,0.1,0c4.2,1.8,7.3,3.1,9.2,3.8c0,0,0,0.1,0,0.1c-5.4,16.6-10.8,33.3-16.2,49.9
				c-4.5,0-6.7,0-11.2,0c-0.2,0-2.3-9-6.5-26.7c-3-12.3-5.2-21.3-6.3-27c0,0,0.1-0.1,0.1-0.1C196.8,11.3,198.7,11.3,202.6,11.3z"/>
			<path id="XMLID_234_" class="st1" d="M276.6,8.1c0,0,0.1,0.1,0.1,0.1c0,3.8,0,5.7,0,9.6c0,0.3-1.1,0.5-3.3,0.7
				c-9.3,1.6-13.9,2.4-23.2,4c0,3.5,0,5.3,0,8.8c0,0,0.1,0,0.1,0c6.8-1.3,10.2-2,17.1-3.4c0.1,0,0.4,4.8,0.7,14.5
				c-7.1,1.8-10.7,2.6-17.9,4.4c0,2.1,0,3.2,0,5.3c13.1-0.8,21-1.2,23.8-1.2c0,0,0.1,0.1,0.1,0.1c0,0-0.1,0.1-0.1,0.1
				c0,1,0,1.5,0,2.5c0.1,3.9,0.1,5.9,0.2,9.9c-12.5,0.8-25.1,1.1-37.6,1.6c0,0-0.1-0.1-0.1-0.1c0-17.8,0-35.6,0-53.5
				c0-0.3,1.8-0.5,5.5-0.6C253.6,9.9,265.1,9,276.6,8.1z"/>
			<path id="XMLID_231_" class="st1" d="M321.2,11.3c0.1,0,0.7,2.3,1.7,6.9c3.5,15.6,7,31.2,10.5,46.7c0,0-0.1,0.1-0.1,0.1
				c-4.8,0-7.1,0-11.9,0c-0.1,0-0.9-3.7-2.4-11.1c-0.5-2-0.7-3-1.1-5c-5.8,2.5-8.8,3.9-8.8,4c-0.9,4.9-1.3,7.3-2.2,12.2
				c-5.4,0-8.1,0-13.5,0c0,0-0.1-0.1-0.1-0.1c0,0-0.1,0-0.1,0c4.6-17.9,9.1-35.8,13.7-53.7C312.6,11.3,315.4,11.3,321.2,11.3z
				 M310.7,43.9c2.3-0.9,3.4-1.4,5.6-2.3c-1.1-5.3-1.6-8-2.7-13.3c-0.2,0-0.9,4.1-2.3,12.3C311.1,41.9,311,42.5,310.7,43.9z"/>
			<path id="XMLID_229_" class="st1" d="M349.9,62c0.3-6.1,0.5-9.1,0.8-15.1c0.6-12.3,1-24.6,2.4-36.9c4.9,1.4,7.3,2.1,12.2,3.5
				c-0.7,10.3-1.1,15.4-1.8,25.6c0,0,0,0.1,0,0.1c3.5-3.8,5.2-5.7,8.7-9.6c4.4,5.6,6.7,8.4,11.1,14c-0.9-14.7-1.5-23.9-1.9-27.5
				c0-0.2,0.4-0.5,1.1-0.7c5-0.7,7.7-1.2,8.3-1.6c0,0,0.1,0,0.1,0c1.8,16.6,3.6,33.3,5.5,49.9c0,0-0.1,0.1-0.1,0.1
				c-2.1-0.3-3.2-0.4-5.4-0.6c-4.2-0.3-6.2-0.6-6.2-0.8c-5-6.7-7.5-10-12.6-16.7c0,0-0.1,0-0.1,0c-4.1,7.5-6.8,12.4-8.1,14.6
				c-1.5,2.7-2.3,4.4-2.3,4.8C356.9,63.9,354.6,63.3,349.9,62z"/>
			<path id="XMLID_227_" class="st1" d="M412.4,17.3c0.2,0,0.6,7.6,1.6,22.7c0.7,10.3,1.1,17.5,1.1,21.5c0,0.6,0,0.9,0,1.6
				c0,0.2-1.8,0.6-5.4,0.9c-2.9,0.4-4.3,0.6-7.1,1.1c-1.2-11.3-1.6-22.8-2.2-34.1c-0.2-5.2-0.4-7.8-0.6-13
				C399.7,17.8,403.9,17.6,412.4,17.3z"/>
			<path id="XMLID_225_" class="st1" d="M454.1,7.8c3.5,0,5.3,0.1,8.8,0.1c0,0,0.1,0.1,0.1,0.1c0,0,0,0.1,0,0.1
				c-0.9,18.2-1.9,36.3-2.8,54.5c-4.4,1-6.7,1.4-11.1,2.4c-5.8-11.5-11.5-23.1-17.6-34.5c0,0.1,0,0.1,0,0.2c1.1,9.5,2.1,19,3.2,28.6
				c0,0.1-4.1,0.6-12.2,1.4c-0.1,0-0.6-7.1-1.5-21c-0.6-9.6-1.2-17.7-1.5-24.2c5-1.2,7.5-1.8,12.5-2.9c5.9,8.9,11.8,17.8,17.1,27
				c0,0,0,0.1,0,0.1c0,0,0.1,0,0.1,0c0.7-10.6,1.3-21.2,2-31.8c0,0,0.1-0.1,0.1-0.1C452.4,7.8,453,7.8,454.1,7.8z"/>
			<path id="XMLID_223_" class="st1" d="M502.5,7.8c3.5,0,5.3,0.1,8.8,0.1c0,0,0.1,0.1,0.1,0.1c0,0,0,0.1,0,0.1
				c-0.9,18.2-1.9,36.3-2.8,54.5c-4.4,1-6.7,1.4-11.1,2.4C491.7,53.6,486,42,479.9,30.6c0,0.1,0,0.1,0,0.2c1.1,9.5,2.1,19,3.2,28.6
				c0,0.1-4.1,0.6-12.2,1.4c-0.1,0-0.6-7.1-1.5-21c-0.6-9.6-1.2-17.7-1.5-24.2c5-1.2,7.5-1.8,12.5-2.9c5.9,8.9,11.8,17.8,17.1,27
				c0,0,0,0.1,0,0.1c0,0,0.1,0,0.1,0c0.7-10.6,1.3-21.2,2-31.8c0,0,0.1-0.1,0.1-0.1C500.8,7.8,501.4,7.8,502.5,7.8z"/>
			<path id="XMLID_221_" class="st1" d="M556.4,8.1c0,0,0.1,0.1,0.1,0.1c0,3.8,0,5.7,0,9.6c0,0.3-1.1,0.5-3.3,0.7
				c-9.3,1.6-13.9,2.4-23.2,4c0,3.5,0,5.3,0,8.8c0,0,0.1,0,0.1,0c6.8-1.3,10.2-2,17.1-3.4c0.1,0,0.4,4.8,0.7,14.5
				c-7.1,1.8-10.7,2.6-17.9,4.4c0,2.1,0,3.2,0,5.3c13.1-0.8,21-1.2,23.8-1.2c0,0,0.1,0.1,0.1,0.1c0,0-0.1,0.1-0.1,0.1
				c0,1,0,1.5,0,2.5c0.1,3.9,0.1,5.9,0.2,9.9c-12.5,0.8-25.1,1.1-37.6,1.6c0,0-0.1-0.1-0.1-0.1c0-17.8,0-35.6,0-53.5
				c0-0.3,1.8-0.5,5.5-0.6C533.3,9.9,544.9,9,556.4,8.1z"/>
			<path id="XMLID_218_" class="st1" d="M586.3,6.5c0.3,0,0.5,0,0.8,0c5.7,0,9.1,2.2,10.1,6.6c0.1,0.7,0.1,1.1,0.2,1.8
				c0,0.3,0,0.4,0,0.7c0,4.8-3.5,9.8-10.6,15.1c4.8,6.4,8.3,13.1,10.6,20.4c0.7,1.6,1.4,4.1,2.1,7.5c-4,3.9-6.7,5.9-8.1,5.9
				c-0.1,0-0.1,0-0.2,0c-0.6,0-0.9-0.8-1-2.5c-3.5-8.9-9.1-17-14.2-25c-1.5,0.7-2.3,1.1-3.9,1.8c0,1.8,0.1,2.6,0.1,4.4
				c0.1,7.6,0.1,11.5,0.2,19.1c0,0.3,0.1,0.4,0.1,0.7c-0.2,0.2-4.1,0.9-11.4,2.1c0,0-0.1-0.1-0.1-0.1c-0.2-18.5-0.5-37-0.7-55.6
				c0,0,0.1-0.1,0.1-0.1c4.4,0,6.7,0,11.1,0C577.4,7.4,582.3,6.5,586.3,6.5z M572.2,20c0,3.1,0,4.7,0,7.8c7.3-2.5,11-5,11-7.7
				c0-0.1,0-0.2,0-0.3c0-1.1-0.9-1.6-2.7-1.6C578.5,18.2,575.8,18.8,572.2,20z"/>
			<path id="XMLID_215_" class="st1" d="M606.2,54.6c0.5,0,2.6,1.2,6.2,3.5c1.8,1.4,2.7,2.7,2.7,3.8c0,1.3-1.2,2.4-3.7,3.2
				c-0.6,0-0.8,0.1-1.4,0.1c-0.1,0-0.2,0-0.3,0c-2.4,0-4-1.1-4.8-3.4c-0.2-1-0.3-2.1-0.3-3.4C604.7,55.8,605.2,54.6,606.2,54.6z
				 M617.8,9.8c0,0,0.1,0.1,0.1,0.1c0,0,0,0.1,0,0.1c-1.1,13.1-2.3,26.2-3.2,39.3c0,0-0.1,0.1-0.1,0.1c0,0-0.1-0.1-0.1-0.1
				c-1.4,0-2.1-0.1-3.5-0.1c-1.9,0-2.9,0-4.8,0c-0.3,0,0.1-5.5-0.4-14.6c0-0.8-0.2-5.8-0.2-14.9c0-1.8,0-2.7,0-4.5
				c0-2.9,0.1-4.4,0.4-4.4C610.7,10.4,613.1,10.2,617.8,9.8z"/>
		</g>
	</g>
	<g id="XMLID_179_">
		<g id="XMLID_180_">
			<path id="XMLID_211_" class="st2" d="M6.5,62C6.8,56,7,53,7.3,46.9C8,34.6,8.3,22.3,9.7,10c4.9,1.4,7.3,2.1,12.2,3.5
				c-0.7,10.3-1.1,15.4-1.8,25.6c0,0,0,0.1,0,0.1c3.5-3.8,5.2-5.7,8.7-9.6c4.4,5.6,6.7,8.4,11.1,14c-0.9-14.7-1.5-23.9-1.9-27.5
				c0-0.2,0.4-0.5,1.1-0.7c5-0.7,7.7-1.2,8.3-1.6c0,0,0.1,0,0.1,0c1.8,16.6,3.6,33.3,5.5,49.9c0,0-0.1,0.1-0.1,0.1
				c-2.1-0.3-3.2-0.4-5.4-0.6c-4.2-0.3-6.2-0.6-6.2-0.8c-5-6.7-7.5-10-12.6-16.7c0,0-0.1,0-0.1,0c-4.1,7.5-6.8,12.4-8.1,14.6
				c-1.5,2.7-2.3,4.4-2.3,4.8C13.5,63.9,11.2,63.3,6.5,62z"/>
			<path id="XMLID_209_" class="st2" d="M97.8,8.1c0,0,0.1,0.1,0.1,0.1c0,3.8,0,5.7,0,9.6c0,0.3-1.1,0.5-3.3,0.7
				c-9.3,1.6-13.9,2.4-23.2,4c0,3.5,0,5.3,0,8.8c0,0,0.1,0,0.1,0c6.8-1.3,10.2-2,17.1-3.4c0.1,0,0.4,4.8,0.7,14.5
				c-7.1,1.8-10.7,2.6-17.9,4.4c0,2.1,0,3.2,0,5.3c13.1-0.8,21-1.2,23.8-1.2c0,0,0.1,0.1,0.1,0.1c0,0-0.1,0.1-0.1,0.1
				c0,1,0,1.5,0,2.5c0.1,3.9,0.1,5.9,0.2,9.9c-12.5,0.8-25.1,1.1-37.6,1.6c0,0-0.1-0.1-0.1-0.1c0-17.8,0-35.6,0-53.5
				c0-0.3,1.8-0.5,5.5-0.6C74.7,9.9,86.3,9,97.8,8.1z"/>
			<path id="XMLID_207_" class="st2" d="M152.3,10.4c0.1,0,0.1,0,0.2,0c0.2,0,0.3,0.4,0.3,1.2c0.4,16.6,0.3,33.4,1.8,50
				c0,0.1-3.1,0.4-9.4,0.8c-0.6-1.6-1.3-8.4-2.3-20.4c-0.1,0-0.2,0.1-0.3,0.1c-3.4,0-8.2,1.6-14.3,4.8c0.3,6.4,0.5,9.6,0.8,16.1
				c0,0.1-4.2,0.8-12.5,2.1c-0.8-10.6-1-21.2-1.4-31.7c-0.3-7.3-0.5-10.9-0.8-18.2c4.8-1.6,7.1-2.3,11.9-3.9c0.1,0,0.5,6.8,1.1,20.5
				c0,0,0.1,0.1,0.1,0.1c0,0,0.1,0,0.1,0c2.1-0.8,5.9-1.6,11.4-2.4c1.2-0.1,1.7-0.2,2.9-0.3c-0.4-6.3-0.6-9.5-1.1-15.9
				C147,11.3,150.8,10.4,152.3,10.4z"/>
			<path id="XMLID_204_" class="st2" d="M186.2,11.3c0.1,0,0.7,2.3,1.7,6.9c3.5,15.6,7,31.2,10.5,46.7c0,0-0.1,0.1-0.1,0.1
				c-4.8,0-7.1,0-11.9,0c-0.1,0-0.9-3.7-2.4-11.1c-0.5-2-0.7-3-1.1-5c-5.8,2.5-8.8,3.9-8.8,4c-0.9,4.9-1.3,7.3-2.2,12.2
				c-5.4,0-8.1,0-13.5,0c0,0-0.1-0.1-0.1-0.1c0,0-0.1,0-0.1,0c4.6-17.9,9.1-35.8,13.7-53.7C177.6,11.3,180.5,11.3,186.2,11.3z
				 M175.8,43.9c2.3-0.9,3.4-1.4,5.6-2.3c-1.1-5.3-1.6-8-2.7-13.3c-0.2,0-0.9,4.1-2.3,12.3C176.1,41.9,176,42.5,175.8,43.9z"/>
			<path id="XMLID_202_" class="st2" d="M202.6,11.3c0.1,0,1,3.9,2.6,11.6c2.1,9.4,4.1,18.8,6.2,28.2c0,0,0.1,0,0.1,0
				c4.1-13.2,8.2-26.5,12.2-39.7c0,0,0.1,0,0.1,0c4.2,1.8,7.3,3.1,9.2,3.8c0,0,0,0.1,0,0.1c-5.4,16.6-10.8,33.3-16.2,49.9
				c-4.5,0-6.7,0-11.2,0c-0.2,0-2.3-9-6.5-26.7c-3-12.3-5.2-21.3-6.3-27c0,0,0.1-0.1,0.1-0.1C196.8,11.3,198.7,11.3,202.6,11.3z"/>
			<path id="XMLID_200_" class="st2" d="M276.6,8.1c0,0,0.1,0.1,0.1,0.1c0,3.8,0,5.7,0,9.6c0,0.3-1.1,0.5-3.3,0.7
				c-9.3,1.6-13.9,2.4-23.2,4c0,3.5,0,5.3,0,8.8c0,0,0.1,0,0.1,0c6.8-1.3,10.2-2,17.1-3.4c0.1,0,0.4,4.8,0.7,14.5
				c-7.1,1.8-10.7,2.6-17.9,4.4c0,2.1,0,3.2,0,5.3c13.1-0.8,21-1.2,23.8-1.2c0,0,0.1,0.1,0.1,0.1c0,0-0.1,0.1-0.1,0.1
				c0,1,0,1.5,0,2.5c0.1,3.9,0.1,5.9,0.2,9.9c-12.5,0.8-25.1,1.1-37.6,1.6c0,0-0.1-0.1-0.1-0.1c0-17.8,0-35.6,0-53.5
				c0-0.3,1.8-0.5,5.5-0.6C253.6,9.9,265.1,9,276.6,8.1z"/>
			<path id="XMLID_197_" class="st2" d="M321.2,11.3c0.1,0,0.7,2.3,1.7,6.9c3.5,15.6,7,31.2,10.5,46.7c0,0-0.1,0.1-0.1,0.1
				c-4.8,0-7.1,0-11.9,0c-0.1,0-0.9-3.7-2.4-11.1c-0.5-2-0.7-3-1.1-5c-5.8,2.5-8.8,3.9-8.8,4c-0.9,4.9-1.3,7.3-2.2,12.2
				c-5.4,0-8.1,0-13.5,0c0,0-0.1-0.1-0.1-0.1c0,0-0.1,0-0.1,0c4.6-17.9,9.1-35.8,13.7-53.7C312.6,11.3,315.4,11.3,321.2,11.3z
				 M310.7,43.9c2.3-0.9,3.4-1.4,5.6-2.3c-1.1-5.3-1.6-8-2.7-13.3c-0.2,0-0.9,4.1-2.3,12.3C311.1,41.9,311,42.5,310.7,43.9z"/>
			<path id="XMLID_195_" class="st2" d="M349.9,62c0.3-6.1,0.5-9.1,0.8-15.1c0.6-12.3,1-24.6,2.4-36.9c4.9,1.4,7.3,2.1,12.2,3.5
				c-0.7,10.3-1.1,15.4-1.8,25.6c0,0,0,0.1,0,0.1c3.5-3.8,5.2-5.7,8.7-9.6c4.4,5.6,6.7,8.4,11.1,14c-0.9-14.7-1.5-23.9-1.9-27.5
				c0-0.2,0.4-0.5,1.1-0.7c5-0.7,7.7-1.2,8.3-1.6c0,0,0.1,0,0.1,0c1.8,16.6,3.6,33.3,5.5,49.9c0,0-0.1,0.1-0.1,0.1
				c-2.1-0.3-3.2-0.4-5.4-0.6c-4.2-0.3-6.2-0.6-6.2-0.8c-5-6.7-7.5-10-12.6-16.7c0,0-0.1,0-0.1,0c-4.1,7.5-6.8,12.4-8.1,14.6
				c-1.5,2.7-2.3,4.4-2.3,4.8C356.9,63.9,354.6,63.3,349.9,62z"/>
			<path id="XMLID_193_" class="st2" d="M412.4,17.3c0.2,0,0.6,7.6,1.6,22.7c0.7,10.3,1.1,17.5,1.1,21.5c0,0.6,0,0.9,0,1.6
				c0,0.2-1.8,0.6-5.4,0.9c-2.9,0.4-4.3,0.6-7.1,1.1c-1.2-11.3-1.6-22.8-2.2-34.1c-0.2-5.2-0.4-7.8-0.6-13
				C399.7,17.8,403.9,17.6,412.4,17.3z"/>
			<path id="XMLID_191_" class="st2" d="M454.1,7.8c3.5,0,5.3,0.1,8.8,0.1c0,0,0.1,0.1,0.1,0.1c0,0,0,0.1,0,0.1
				c-0.9,18.2-1.9,36.3-2.8,54.5c-4.4,1-6.7,1.4-11.1,2.4c-5.8-11.5-11.5-23.1-17.6-34.5c0,0.1,0,0.1,0,0.2c1.1,9.5,2.1,19,3.2,28.6
				c0,0.1-4.1,0.6-12.2,1.4c-0.1,0-0.6-7.1-1.5-21c-0.6-9.6-1.2-17.7-1.5-24.2c5-1.2,7.5-1.8,12.5-2.9c5.9,8.9,11.8,17.8,17.1,27
				c0,0,0,0.1,0,0.1c0,0,0.1,0,0.1,0c0.7-10.6,1.3-21.2,2-31.8c0,0,0.1-0.1,0.1-0.1C452.4,7.8,453,7.8,454.1,7.8z"/>
			<path id="XMLID_189_" class="st2" d="M502.5,7.8c3.5,0,5.3,0.1,8.8,0.1c0,0,0.1,0.1,0.1,0.1c0,0,0,0.1,0,0.1
				c-0.9,18.2-1.9,36.3-2.8,54.5c-4.4,1-6.7,1.4-11.1,2.4C491.7,53.6,486,42,479.9,30.6c0,0.1,0,0.1,0,0.2c1.1,9.5,2.1,19,3.2,28.6
				c0,0.1-4.1,0.6-12.2,1.4c-0.1,0-0.6-7.1-1.5-21c-0.6-9.6-1.2-17.7-1.5-24.2c5-1.2,7.5-1.8,12.5-2.9c5.9,8.9,11.8,17.8,17.1,27
				c0,0,0,0.1,0,0.1c0,0,0.1,0,0.1,0c0.7-10.6,1.3-21.2,2-31.8c0,0,0.1-0.1,0.1-0.1C500.8,7.8,501.4,7.8,502.5,7.8z"/>
			<path id="XMLID_187_" class="st2" d="M556.4,8.1c0,0,0.1,0.1,0.1,0.1c0,3.8,0,5.7,0,9.6c0,0.3-1.1,0.5-3.3,0.7
				c-9.3,1.6-13.9,2.4-23.2,4c0,3.5,0,5.3,0,8.8c0,0,0.1,0,0.1,0c6.8-1.3,10.2-2,17.1-3.4c0.1,0,0.4,4.8,0.7,14.5
				c-7.1,1.8-10.7,2.6-17.9,4.4c0,2.1,0,3.2,0,5.3c13.1-0.8,21-1.2,23.8-1.2c0,0,0.1,0.1,0.1,0.1c0,0-0.1,0.1-0.1,0.1
				c0,1,0,1.5,0,2.5c0.1,3.9,0.1,5.9,0.2,9.9c-12.5,0.8-25.1,1.1-37.6,1.6c0,0-0.1-0.1-0.1-0.1c0-17.8,0-35.6,0-53.5
				c0-0.3,1.8-0.5,5.5-0.6C533.3,9.9,544.9,9,556.4,8.1z"/>
			<path id="XMLID_184_" class="st2" d="M586.3,6.5c0.3,0,0.5,0,0.8,0c5.7,0,9.1,2.2,10.1,6.6c0.1,0.7,0.1,1.1,0.2,1.8
				c0,0.3,0,0.4,0,0.7c0,4.8-3.5,9.8-10.6,15.1c4.8,6.4,8.3,13.1,10.6,20.4c0.7,1.6,1.4,4.1,2.1,7.5c-4,3.9-6.7,5.9-8.1,5.9
				c-0.1,0-0.1,0-0.2,0c-0.6,0-0.9-0.8-1-2.5c-3.5-8.9-9.1-17-14.2-25c-1.5,0.7-2.3,1.1-3.9,1.8c0,1.8,0.1,2.6,0.1,4.4
				c0.1,7.6,0.1,11.5,0.2,19.1c0,0.3,0.1,0.4,0.1,0.7c-0.2,0.2-4.1,0.9-11.4,2.1c0,0-0.1-0.1-0.1-0.1c-0.2-18.5-0.5-37-0.7-55.6
				c0,0,0.1-0.1,0.1-0.1c4.4,0,6.7,0,11.1,0C577.4,7.4,582.3,6.5,586.3,6.5z M572.2,20c0,3.1,0,4.7,0,7.8c7.3-2.5,11-5,11-7.7
				c0-0.1,0-0.2,0-0.3c0-1.1-0.9-1.6-2.7-1.6C578.5,18.2,575.8,18.8,572.2,20z"/>
			<path id="XMLID_181_" class="st2" d="M606.2,54.6c0.5,0,2.6,1.2,6.2,3.5c1.8,1.4,2.7,2.7,2.7,3.8c0,1.3-1.2,2.4-3.7,3.2
				c-0.6,0-0.8,0.1-1.4,0.1c-0.1,0-0.2,0-0.3,0c-2.4,0-4-1.1-4.8-3.4c-0.2-1-0.3-2.1-0.3-3.4C604.7,55.8,605.2,54.6,606.2,54.6z
				 M617.8,9.8c0,0,0.1,0.1,0.1,0.1c0,0,0,0.1,0,0.1c-1.1,13.1-2.3,26.2-3.2,39.3c0,0-0.1,0.1-0.1,0.1c0,0-0.1-0.1-0.1-0.1
				c-1.4,0-2.1-0.1-3.5-0.1c-1.9,0-2.9,0-4.8,0c-0.3,0,0.1-5.5-0.4-14.6c0-0.8-0.2-5.8-0.2-14.9c0-1.8,0-2.7,0-4.5
				c0-2.9,0.1-4.4,0.4-4.4C610.7,10.4,613.1,10.2,617.8,9.8z"/>
		</g>
	</g>
</g>
</svg>
